<?xml version="1.0" encoding="utf-8"?><svg xmlns="http://www.w3.org/2000/svg" xmlns:xlink="http://www.w3.org/1999/xlink" width="1531" height="361" preserveAspectRatio="xMidYMid" viewBox="0 0 1531 361" style="z-index:1;margin-right:-2px;display:block;background-repeat-y:initial;background-repeat-x:initial;background-color:rgb(241, 242, 243);animation-play-state:paused" ><g transform="translate(765.5,180.5) scale(1,1) translate(-765.5,-180.5)" style="transform:matrix(1, 0, 0, 1, 0, 0);animation-play-state:paused" ><linearGradient id="lg-0.8232151517311215" x1="0" x2="1" y1="0" y2="0" style="animation-play-state:paused" ><stop stop-color="#85a2b6" offset="0" style="animation-play-state:paused" ></stop>

  
<stop stop-color="#bbcedd" offset="1" style="animation-play-state:paused" ></stop></linearGradient>
<path d="M 0 0 L 0 354.704 Q 153.1 326.366 306.2 289.092 T 612.4 261.892 T 918.6 255.464 T 1224.8 180.626 T 1531 188.29 L 1531 0 Z" fill="url(#lg-0.8232151517311215)" opacity="0.4" style="opacity:0.4;animation-play-state:paused" ></path>
<path d="M 0 0 L 0 335.34 Q 153.1 328.186 306.2 295.196 T 612.4 255.711 T 918.6 233.146 T 1224.8 215.783 T 1531 130.476 L 1531 0 Z" fill="url(#lg-0.8232151517311215)" opacity="0.4" style="opacity:0.4;animation-play-state:paused" ></path>
<path d="M 0 0 L 0 302.65 Q 153.1 303.463 306.2 283.365 T 612.4 233.057 T 918.6 189.71 T 1224.8 176.482 T 1531 141.46 L 1531 0 Z" fill="url(#lg-0.8232151517311215)" opacity="0.4" style="opacity:0.4;animation-play-state:paused" ></path>
<path d="M 0 0 L 0 346.043 Q 153.1 349.788 306.2 309.984 T 612.4 223.734 T 918.6 241.287 T 1224.8 152.26 T 1531 134.945 L 1531 0 Z" fill="url(#lg-0.8232151517311215)" opacity="0.4" style="opacity:0.4;animation-play-state:paused" ></path>
<path d="M 0 0 L 0 309.109 Q 153.1 312.966 306.2 288.239 T 612.4 249.412 T 918.6 219.467 T 1224.8 201.584 T 1531 183.186 L 1531 0 Z" fill="url(#lg-0.8232151517311215)" opacity="0.4" style="opacity:0.4;animation-play-state:paused" ></path></g></svg>